HIERARCHY
ROOT Hips
{
	OFFSET 0.000000 0.000000 0.000000
	CHANNELS 6 Xposition Yposition Zposition Xrotation Yrotation Zrotation
	JOINT LeftUpLeg_virtual
	{
		OFFSET 0.000000 0.000000 0.000000
		CHANNELS 3 Xrotation Yrotation Zrotation
		JOINT LeftUpLeg
		{
			OFFSET 13.026900 -6.336304 -1.092800
			CHANNELS 3 Xrotation Yrotation Zrotation
			JOINT LeftLeg
			{
				OFFSET 0.524474 -46.096886 9.782700
				CHANNELS 3 Xrotation Yrotation Zrotation
				JOINT LeftFoot
				{
					OFFSET -0.524474 -53.427422 -12.948200
					CHANNELS 3 Xrotation Yrotation Zrotation
					JOINT LeftToeBase
					{
						OFFSET 0.192200 -14.009700 16.364100
						CHANNELS 3 Xrotation Yrotation Zrotation
						JOINT LeftToe_End
						{
							OFFSET -1.784700 -0.561700 9.474800
							CHANNELS 3 Xrotation Yrotation Zrotation
							End Site
							{
								OFFSET 0 0 0
							}
						}
					}
				}
			}
		}
	}
	JOINT RightUpLeg_virtual
	{
		OFFSET 0.000000 0.000000 0.000000
		CHANNELS 3 Xrotation Yrotation Zrotation
		JOINT RightUpLeg
		{
			OFFSET -12.883000 -6.336304 -1.092800
			CHANNELS 3 Xrotation Yrotation Zrotation
			JOINT RightLeg
			{
				OFFSET -0.524587 -46.096825 9.782800
				CHANNELS 3 Xrotation Yrotation Zrotation
				JOINT RightFoot
				{
					OFFSET 0.524587 -53.427383 -12.948300
					CHANNELS 3 Xrotation Yrotation Zrotation
					JOINT RightToeBase
					{
						OFFSET -0.192200 -14.009700 16.364100
						CHANNELS 3 Xrotation Yrotation Zrotation
						JOINT RightToe_End
						{
							OFFSET 1.784700 -0.561700 9.474800
							CHANNELS 3 Xrotation Yrotation Zrotation
							End Site
							{
								OFFSET 0 0 0
							}
						}
					}
				}
			}
		}
	}
	JOINT Spine_virtual
	{
		OFFSET 0.000000 0.000000 0.000000
		CHANNELS 3 Xrotation Yrotation Zrotation
		JOINT Spine
		{
			OFFSET 0.072000 7.257294 -0.789700
			CHANNELS 3 Xrotation Yrotation Zrotation
			JOINT Spine1
			{
				OFFSET 0.000000 12.508769 -0.658067
				CHANNELS 3 Xrotation Yrotation Zrotation
				JOINT Spine1_split
				{
					OFFSET 0.000000 12.508769 -0.658067
					CHANNELS 3 Xrotation Yrotation Zrotation
					JOINT Spine2
					{
						OFFSET 0.000000 12.508769 -0.658067
						CHANNELS 3 Xrotation Yrotation Zrotation
						JOINT Neck_virtual
						{
							OFFSET 0.000000 0.000000 0.000000
							CHANNELS 3 Xrotation Yrotation Zrotation
							JOINT Neck
							{
								OFFSET 0.000000 14.033295 7.520400
								CHANNELS 3 Xrotation Yrotation Zrotation
								JOINT Head
								{
									OFFSET 0.000000 8.198502 5.703100
									CHANNELS 3 Xrotation Yrotation Zrotation
									JOINT HeadTop_End
									{
										OFFSET 0.000000 17.760803 13.332701
										CHANNELS 3 Xrotation Yrotation Zrotation
										End Site
										{
											OFFSET 0 0 0
										}
									}
								}
							}
						}
						JOINT LeftShoulder_virtual
						{
							OFFSET 0.000000 0.000000 0.000000
							CHANNELS 3 Xrotation Yrotation Zrotation
							JOINT LeftShoulder
							{
								OFFSET 6.292450 5.785301 -0.669000
								CHANNELS 3 Xrotation Yrotation Zrotation
								JOINT LeftShoulder_split
								{
									OFFSET 6.292450 5.785301 -0.669000
									CHANNELS 3 Xrotation Yrotation Zrotation
									JOINT LeftArm
									{
										OFFSET 13.907140 -6.093903 1.965100
										CHANNELS 3 Xrotation Yrotation Zrotation
										JOINT LeftForeArm
										{
											OFFSET 34.140198 0.000000 0.000000
											CHANNELS 3 Xrotation Yrotation Zrotation
											JOINT LeftHand
											{
												OFFSET 40.960209 0.000000 0.000000
												CHANNELS 3 Xrotation Yrotation Zrotation
												End Site
												{
													OFFSET 0 0 0
												}
											}
										}
									}
								}
							}
						}
						JOINT RightShoulder_virtual
						{
							OFFSET 0.000000 0.000000 0.000000
							CHANNELS 3 Xrotation Yrotation Zrotation
							JOINT RightShoulder
							{
								OFFSET -6.292450 5.785301 -0.669000
								CHANNELS 3 Xrotation Yrotation Zrotation
								JOINT RightShoulder_split
								{
									OFFSET -6.292450 5.785301 -0.669000
									CHANNELS 3 Xrotation Yrotation Zrotation
									JOINT RightArm
									{
										OFFSET -13.907140 -6.093903 1.965100
										CHANNELS 3 Xrotation Yrotation Zrotation
										JOINT RightForeArm
										{
											OFFSET -34.140198 0.000000 0.000000
											CHANNELS 3 Xrotation Yrotation Zrotation
											JOINT RightHand
											{
												OFFSET -40.960209 0.000000 0.000000
												CHANNELS 3 Xrotation Yrotation Zrotation
												End Site
												{
													OFFSET 0 0 0
												}
											}
										}
									}
								}
							}
						}
					}
				}
			}
		}
	}
}
MOTION
Frames: 6
Frame Time: 0.03333333
2.577941 116.052368 -2.094429 0.000000 0.000000 0.000000 0.674736 0.670024 -3.356342 -27.131268 -6.413299 6.765706 43.034379 -1.771847 -1.314903 25.687372 1.871237 12.094925 -13.041497 -0.503453 1.698120 0.000000 0.000000 0.000000 1.021728 3.932583 -3.769894 -16.161276 -10.124633 8.648681 27.703968 7.756111 -1.439427 14.734212 0.163253 -5.182327 -18.892945 1.920698 1.440591 0.000000 0.000000 0.000000 -3.602361 5.037402 -2.523311 5.312340 1.281394 1.379013 -2.103638 -0.666263 1.916311 0.061809 1.451682 -0.656670 0.000000 0.000000 0.000000 -2.436165 -0.111381 1.443796 -2.487016 -2.309561 2.178067 2.816474 3.028364 2.299351 0.000000 0.000000 0.000000 -2.002760 0.090367 1.739628 0.386195 2.569625 -1.608227 1.230465 -1.747302 0.422995 -0.547287 2.141462 -71.496439 23.563531 -15.216541 1.536947 0.000000 0.000000 0.000000 -1.432176 -0.014184 1.738897 0.744213 3.589566 5.848700 -3.327637 1.117559 -2.380897 -7.184008 6.533199 78.110385 11.788228 18.510479 -3.496606 0.000000 0.000000 0.000000 
2.481788 116.311661 0.349453 0.000000 0.000000 0.000000 0.131171 -0.919011 -3.132179 -28.760520 -4.948655 6.267221 38.573866 -1.385681 -1.344467 25.557595 1.551656 13.182669 -13.786073 -0.660482 2.295736 0.000000 0.000000 0.000000 1.248251 2.869988 -3.645316 -15.943591 -9.939207 8.376378 28.144332 8.187655 -1.305885 16.815770 0.666427 -5.905447 -21.715722 1.674765 1.865584 0.000000 0.000000 0.000000 -3.256218 4.677085 -2.860446 5.420224 1.421639 1.394888 -2.076580 -0.616832 1.890113 0.179781 0.978899 -0.491346 0.000000 0.000000 0.000000 -2.368291 -0.103573 1.434471 -2.455196 -2.109158 1.716395 3.143315 2.994324 2.437083 0.000000 0.000000 0.000000 -2.271687 0.145415 1.744003 0.466530 3.010834 -1.874753 0.534830 -2.062266 -0.137683 -0.251424 2.272599 -71.315754 23.682774 -15.853885 1.796224 0.000000 0.000000 0.000000 -1.576917 0.011315 1.788333 0.705335 3.672853 5.274513 -2.777505 1.429452 -2.289963 -8.244823 7.037807 78.143313 11.854987 18.557491 -3.751685 0.000000 0.000000 0.000000 
2.446572 117.240822 3.393436 0.000000 0.000000 0.000000 -0.287120 -2.028732 -2.708550 -29.933144 -3.508745 4.836663 30.617085 -1.409202 -0.718954 26.636355 0.906907 11.437935 -16.343620 -0.748373 2.368986 0.000000 0.000000 0.000000 0.990955 1.618661 -3.206487 -14.649981 -9.891477 7.489622 28.194259 9.267038 -1.264437 18.589955 2.391477 -6.613281 -25.668961 1.517054 2.274682 0.000000 0.000000 0.000000 -2.787766 4.096695 -3.180629 5.734829 1.482414 1.555053 -2.085675 -0.566851 1.896875 0.686517 0.542238 -0.236345 0.000000 0.000000 0.000000 -2.345551 -0.088076 1.463236 -2.810281 -1.617805 0.785905 3.375931 3.015186 2.234583 0.000000 0.000000 0.000000 -2.566420 0.228642 1.767291 0.559962 4.112225 -2.741616 -0.731101 -2.687368 -0.733226 0.373481 2.927444 -71.604220 24.184001 -16.209396 2.286992 0.000000 0.000000 0.000000 -1.668425 0.022506 1.750375 0.697299 3.741736 4.366765 -2.237971 1.560680 -1.900636 -9.669115 8.760917 77.593804 11.779256 18.524486 -3.848323 0.000000 0.000000 0.000000 
2.458945 118.299919 6.714043 0.000000 0.000000 0.000000 -0.540437 -2.379945 -2.096658 -30.543790 -1.827270 3.109226 21.254341 -1.594784 0.069856 29.365046 0.302562 7.350726 -20.471716 -0.674815 2.018247 0.000000 0.000000 0.000000 0.480601 0.414663 -2.612354 -12.325162 -10.047094 6.086142 27.147540 10.650543 -1.210726 18.728862 4.619903 -7.767946 -28.956727 1.534250 2.550068 0.000000 0.000000 0.000000 -2.514242 3.261487 -3.421614 6.161103 1.470293 1.820369 -2.116770 -0.558870 1.962664 1.212386 0.300178 0.212043 0.000000 0.000000 0.000000 -2.399289 -0.118241 1.582740 -3.529509 -0.871342 -0.402425 3.539479 3.070677 1.753467 0.000000 0.000000 0.000000 -2.827009 0.280916 1.837864 0.694567 5.753091 -4.033847 -2.083642 -3.431452 -1.045896 1.433885 3.916543 -72.114906 24.856892 -16.082719 2.852509 0.000000 0.000000 0.000000 -1.756842 -0.026267 1.677670 0.736143 3.725519 3.204004 -1.809665 1.488896 -1.403506 -10.991108 10.959010 76.836124 11.538104 18.820250 -3.779673 0.000000 0.000000 0.000000 
2.501358 119.043716 10.264938 0.000000 0.000000 0.000000 -0.899812 -2.368952 -1.524381 -31.341993 0.307515 1.610401 13.369370 -2.033767 0.701195 33.958509 -0.353455 1.773815 -24.658786 -0.336830 1.477273 0.000000 0.000000 0.000000 0.031808 -0.573455 -2.096170 -8.886973 -10.643395 4.534092 24.824225 11.862332 -1.075755 16.901633 6.610534 -9.239445 -30.875734 1.699224 2.642315 0.000000 0.000000 0.000000 -2.256912 2.414763 -3.521842 6.517056 1.400358 2.059837 -2.122464 -0.588746 2.106085 1.193306 0.469644 0.475560 0.000000 0.000000 0.000000 -2.528173 -0.226012 1.831315 -4.463547 -0.004315 -1.550413 3.644057 3.118862 1.130960 0.000000 0.000000 0.000000 -3.009845 0.270337 1.992061 0.900379 7.628135 -5.435286 -2.997596 -4.033632 -1.038113 2.701425 4.805488 -72.627867 25.402828 -15.416697 3.278116 0.000000 0.000000 0.000000 -1.851235 -0.140885 1.647850 0.810155 3.644942 1.923681 -1.383404 1.484053 -0.969244 -11.945855 12.809833 76.361781 11.136422 19.734051 -3.557902 0.000000 0.000000 0.000000 
2.710225 119.003220 14.204620 0.000000 0.000000 0.000000 -1.307584 -2.590494 -1.123983 -32.268942 3.250016 0.612766 8.654458 -2.317712 0.792452 38.813298 -0.725325 -2.882828 -27.269069 0.200149 0.869293 0.000000 0.000000 0.000000 -0.388890 -0.878814 -1.804939 -4.577050 -11.727484 3.178066 21.726367 12.663657 -0.850877 13.726260 7.923734 -10.353518 -31.358447 1.910949 2.602885 0.000000 0.000000 0.000000 -2.196818 1.441601 -3.418942 6.666730 1.241898 2.097587 -2.076265 -0.650432 2.298400 0.835554 0.870741 0.433879 0.000000 0.000000 0.000000 -2.689918 -0.402700 2.152801 -5.411524 0.873603 -2.369089 3.722613 3.187501 0.557646 0.000000 0.000000 0.000000 -3.100612 0.191351 2.228370 1.139050 9.232128 -6.575812 -3.292773 -4.518797 -0.792527 3.910835 5.278974 -73.026286 25.553220 -14.127737 3.408419 0.000000 0.000000 0.000000 -1.953533 -0.304803 1.720188 0.913248 3.574672 0.650809 -0.897597 1.468337 -0.572541 -12.326737 13.655520 76.605257 10.650997 21.088342 -3.238922 0.000000 0.000000 0.000000 
